<svg width="174" height="168" viewBox="0 0 174 168" fill="none"
     xmlns="http://www.w3.org/2000/svg">
    <path
            d="M135.079 149.022C133.983 148.905 133.226 148.846 132.806 148.846C131.593 148.846 130.748 149.052 130.271 149.462C129.793 149.872 129.554 150.593 129.554 151.624V159.043H124.238V143.642H129.309V146.385H129.414C129.67 145.986 129.95 145.577 130.253 145.155C131.232 143.866 132.456 143.221 133.925 143.221C134.321 143.221 134.706 143.245 135.079 143.291V149.022Z"
            fill="white"/>
    <path
            d="M89.1197 138.051C89.1197 138.71 88.8675 139.278 88.363 139.752C87.8582 140.228 87.2381 140.465 86.5021 140.465C85.7874 140.465 85.1722 140.228 84.6571 139.752C84.1419 139.278 83.8845 138.71 83.8845 138.051C83.8845 137.372 84.1419 136.8 84.6571 136.334C85.1722 135.869 85.7874 135.636 86.5021 135.636C87.2381 135.636 87.8582 135.869 88.363 136.334C88.8675 136.8 89.1197 137.372 89.1197 138.051Z"
            fill="white"/>
    <path d="M83.5995 142.789V159.043H89.4049V142.789H83.5995Z" fill="white"/>
    <path
            d="M114.105 146.639C115.077 145.788 116.898 146.52 117.08 147.186C117.263 147.853 117.08 149.792 117.08 149.792H113.377C113.377 147.974 113.134 147.489 114.105 146.639ZM120.784 152.095C122.241 151.368 122.12 147.579 122.12 147.579C122.12 147.579 122.241 146.156 120.906 144.459C119.57 142.763 114.47 142.157 110.948 143.311C107.426 144.465 107.769 149.428 107.769 151.386C107.769 153.344 107.669 156.942 111.191 158.397C114.712 159.851 121.634 158.397 121.634 158.397V154.873C116.496 155.919 114.419 155.271 113.618 154.384C112.847 153.532 113.255 152.458 113.255 152.458C113.255 152.458 119.327 152.822 120.784 152.095Z"
            fill="white"/>
    <path
            d="M71.8881 154.455V148.22C72.6546 147.67 74.0407 146.797 74.8004 147.054C74.9108 147.108 75.0093 147.187 75.1133 147.254C75.9716 148.032 76.1961 148.545 76.0783 151.125C75.9594 153.728 76.1223 154.419 75.0209 155.302C74.83 155.41 74.6278 155.497 74.4152 155.565C73.6333 155.654 72.6055 155.065 71.8881 154.455ZM75.1741 143.085C72.6923 143.552 71.8881 144.861 71.8881 144.861L71.2541 143.471H66.7241V165.283V166.412V167.221L71.8881 165.403V158.589C72.6409 159.165 73.851 159.74 75.5959 159.56C76.0665 159.512 76.4788 159.371 76.8497 159.177C77.8402 158.772 78.7183 158.142 79.4787 157.278C80.9117 155.65 81.6283 153.55 81.6283 150.977C81.6283 143.762 77.6561 142.618 75.1741 143.085Z"
            fill="white"/>
    <path
            d="M96.8374 154.455V148.22C97.6039 147.67 98.99 146.797 99.7498 147.054C99.8602 147.108 99.9586 147.187 100.063 147.254C100.921 148.032 101.145 148.545 101.028 151.125C100.909 153.728 101.072 154.419 99.9701 155.302C99.7795 155.41 99.5771 155.497 99.3644 155.565C98.5825 155.654 97.5549 155.065 96.8374 154.455ZM100.124 143.085C97.6416 143.552 96.8374 144.861 96.8374 144.861L96.2036 143.471H91.6734V165.283V166.412V167.221L96.8374 165.403V158.589C97.5904 159.165 98.8003 159.74 100.545 159.56C101.016 159.512 101.428 159.371 101.799 159.177C102.789 158.772 103.668 158.142 104.428 157.278C105.861 155.65 106.578 153.55 106.578 150.977C106.578 143.762 102.606 142.618 100.124 143.085Z"
            fill="white"/>
    <path
            d="M6.67608 154.455V148.22C7.44266 147.67 8.82878 146.797 9.58841 147.054C9.69888 147.108 9.79731 147.187 9.90137 147.254C10.7596 148.032 10.9842 148.545 10.8663 151.125C10.7475 153.728 10.9104 154.419 9.80891 155.302C9.61813 155.41 9.41588 155.497 9.20319 155.565C8.42135 155.654 7.39358 155.065 6.67608 154.455ZM9.96224 143.085C7.48035 143.552 6.67608 144.861 6.67608 144.861L6.04225 143.471H1.51215V165.283V166.412V167.221L6.67608 165.403V158.589C7.42907 159.165 8.63907 159.74 10.3839 159.56C10.8545 159.512 11.2669 159.371 11.6376 159.177C12.6283 158.772 13.5064 158.142 14.2668 157.278C15.6997 155.65 16.4163 153.55 16.4163 150.977C16.4163 143.762 12.4442 142.618 9.96224 143.085Z"
            fill="white"/>
    <path
            d="M31.7554 146.639C32.7268 145.788 34.5484 146.52 34.7306 147.186C34.9127 147.853 34.7306 149.792 34.7306 149.792H31.0268C31.0268 147.974 30.7839 147.489 31.7554 146.639ZM38.4342 152.095C39.8915 151.368 39.77 147.579 39.77 147.579C39.77 147.579 39.8915 146.156 38.5557 144.459C37.22 142.763 32.1197 142.157 28.5981 143.311C25.0764 144.465 25.4195 149.428 25.4195 151.386C25.4195 153.344 25.3194 156.942 28.8409 158.397C32.3625 159.851 39.2843 158.397 39.2843 158.397V154.873C34.1464 155.919 32.0693 155.271 31.2677 154.384C30.4968 153.532 30.9053 152.458 30.9053 152.458C30.9053 152.458 36.9771 152.822 38.4342 152.095Z"
            fill="white"/>
    <path
            d="M51.4579 153.504C50.6651 154.087 49.2314 155.012 48.4458 154.74C48.3316 154.683 48.2297 154.599 48.1221 154.528C47.2344 153.703 47.0022 153.159 47.124 150.425C47.247 147.665 47.0785 146.932 48.2178 145.997C48.415 145.883 48.6243 145.79 48.8442 145.718C49.6529 145.623 50.7158 146.248 51.4579 146.895V153.504ZM51.5017 135.274L51.4579 135.289V142.512C50.6792 141.901 49.4277 141.292 47.623 141.483C47.1364 141.535 46.7098 141.684 46.3264 141.889C45.3018 142.319 44.3936 142.986 43.607 143.902C42.1251 145.628 41.3839 147.854 41.3839 150.581C41.3839 158.23 45.4922 159.441 48.0592 158.947C50.6261 158.452 51.4579 157.065 51.4579 157.065L52.1135 158.538H56.7989V135.417V135.274H51.5017Z"
            fill="white"/>
    <path d="M18.053 142.789V159.043H23.8583V142.789H18.053Z" fill="white"/>
    <path
            d="M23.5731 138.051C23.5731 138.71 23.321 139.278 22.8162 139.752C22.3116 140.228 21.6915 140.465 20.9555 140.465C20.2407 140.465 19.6257 140.228 19.1105 139.752C18.5952 139.278 18.3379 138.71 18.3379 138.051C18.3379 137.372 18.5952 136.8 19.1105 136.334C19.6257 135.869 20.2407 135.636 20.9555 135.636C21.6915 135.636 22.3116 135.869 22.8162 136.334C23.321 136.8 23.5731 137.372 23.5731 138.051Z"
            fill="white"/>
    <path
            d="M168.867 1.65456C165.179 3.56864 143.412 14.4118 121.918 56.1469C121.918 56.1469 114.985 71.3772 110.87 77.005C107.358 68.6957 96.8936 52.4569 70.9764 62.8294C70.9764 62.8294 48.3895 72.5494 32.9674 103.41L29.1763 110.934C24.8302 112.095 20.3488 113.164 16.2284 113.914C11.3778 114.568 7.38924 114.831 4.60291 114.926C4.4984 114.922 1.19598 114.803 0.180126 114.953C-0.852032 115.105 2.60831 120.304 9.10525 122.33C9.11064 122.332 9.11558 122.333 9.12093 122.335C11.1288 123.258 13.409 123.96 16.0393 124.434C18.7712 125.054 21.9517 125.32 27.9434 125.116C28.0502 125.113 28.1567 125.109 28.2643 125.105C28.3386 125.103 28.4087 125.101 28.4838 125.098C28.5035 125.097 28.5233 125.093 28.543 125.092C35.3958 124.819 43.8162 123.729 54.3399 121.757C88.7058 115.317 107.255 118.658 111.627 119.843C115.998 121.028 116.727 118.658 116.727 118.658C116.727 118.658 132.21 92.5057 131.572 91.1388C130.935 89.772 129.568 89.6808 129.568 89.6808C102.61 85.4891 85.427 87.4939 56.2828 101.831C54.6825 102.618 53.0906 103.35 51.5077 104.047C51.0317 104.214 47.1789 105.563 41.7614 107.262C42.0238 106.783 42.8738 106.065 44.7465 104.99C51.304 101.223 72.7978 87.2509 87.6129 83.8488C102.428 80.4468 112.385 81.4189 112.385 81.4189C112.385 81.4189 114.936 75.9514 116.879 72.7924C118.821 69.6334 121.554 65.1378 125.197 62.9509C128.84 60.7639 135.883 57.5441 138.372 54.5066C140.862 51.4692 143.837 48.371 145.598 35.7957C145.598 35.7957 146.973 24.885 153.051 18.0779C159.129 11.2707 166.113 4.10015 171.738 0.832401L173.33 0.0134555C173.33 0.0134555 172.557 -0.259526 168.867 1.65456Z"
            fill="white"/>
</svg>